<?xml version="1.0" encoding="utf-8"?>
<!-- Generator: Adobe Illustrator 22.0.0, SVG Export Plug-In . SVG Version: 6.00 Build 0)  -->
<svg version="1.1" id="Layer_1" xmlns="http://www.w3.org/2000/svg" xmlns:xlink="http://www.w3.org/1999/xlink" x="0px" y="0px"
	 viewBox="0 0 779.4 181.8" style="enable-background:new 0 0 779.4 181.8;" xml:space="preserve">
<style type="text/css">
	.st0{fill:#E9D9DE;}
	.st1{fill:#E8D3D8;}
	.st2{fill:#F1E9EC;}
	.st3{fill:#293B52;}
	.st4{fill:#121A25;}
	.st5{fill:#16202D;}
	.st6{fill:#1D2B3C;}
	.st7{fill:#2A3E55;}
	.st8{fill:#151D29;}
	.st9{fill:#213143;}
	.st10{fill:#26374B;}
	.st11{fill:#C3CAD2;}
	.st12{fill:#182432;}
	.st13{fill:#F1A50F;}
	.st14{fill:#EE890C;}
</style>
<g>
	<path class="st0" d="M627.2,117.3c5.4,1.9,2.8,6.5,2.8,9.8c0,3.3-3.4,2.9-5.8,3c-4,0.1-8,0.1-12,0c-2.1,0-3.8,0.6-3.9,2.8
		c-0.1,2.4,1.6,3.4,3.9,3.5c0.8,0,1.7,0,2.5,0c6.8,0,7.6,1,7.2,7.8c-0.2,3.2-1.5,4.9-4.8,4.9c-2,0-4,0-6,0.1c-1.7,0.1-2.9,1-2.9,2.8
		c0.1,1.7,1.3,2.6,3,2.7c4.3,0.1,8.6,0,12.9,0.1c2.4,0.1,5.8-0.3,5.8,3c-0.1,3.3,2.7,7.9-2.8,9.8c-10.7,0-21.3,0-32,0
		c-1.6-1.2-1.2-3-1.2-4.5c-0.1-13.7-0.1-27.5,0-41.2c0-1.5-0.4-3.3,1.2-4.5C605.9,117.3,616.5,117.3,627.2,117.3z"/>
	<path class="st0" d="M506.2,32.3c4.7,0,9.4,0,14,0c7.7,0,15.3,0,23,0c0.7,0.1,1.1-0.1,1.3-0.7c2.3,3.1,3.7,6.3,1.8,10.3
		c-1.9,4-5.3,3.3-8.5,3.3c-6,0.1-6.3,0.4-6.3,6.6c0,8,0,16,0,23.9c0,6.3-0.4,6.6-6.8,6.7c-1.8,0-3.7,0-5.5,0l-0.2-0.2
		c0,0-0.3,0.1-0.3,0.1c-0.5-0.4-0.9-0.8-1.4-1.3c0,0,0.2,0.1,0.2,0.1c-0.2-0.6-0.3-1.2-0.5-1.7c0-6,0-12,0-18c0-3,0-6,0-9
		c0-1,0-2,0-3c0.2-2.5-0.7-4.1-3.5-4.1c-2.1,0-4.2,0.1-6.4,0.2c-2.2-0.2-5.7-0.1-5.8-2.3c-0.1-3.6-0.3-7.8,2.8-10.8
		C504.9,32.4,505.5,32.3,506.2,32.3z"/>
	<path class="st0" d="M531.2,130.5c-3,0-6,0-9-0.1c-3.2-3.6-2.1-7.8-1.7-11.9c0.2-0.2,0.5-0.4,0.7-0.6c13.9-1,27.9-0.5,41.8-0.2
		c1.4,1.8,1.2,4,1.4,6.2c0.3,4.4-1.6,6.6-6.1,6.4c-1.3-0.1-2.7,0.1-4,0c-3.8-0.4-5,1.6-5,5.1c0.1,7.8,0,15.6,0,23.5
		c0,8.9,0,8.9-8.7,8.8c-1.9,0-3.6-0.1-5.2-1.2c-0.2-4-0.3-7.9-0.5-11.9c0-5.3,0-10.7,0-16C534.5,135.4,537.3,130.8,531.2,130.5z"/>
	<path class="st0" d="M577.2,32.8c4.4,0.2,9.2-2.1,13.1,1.7c0,14.4-0.1,28.8-0.1,43.2c0,1.1-0.5,2.4,0.9,3.1
		c-3.9,2.6-8.3,1.4-12.6,1.6c-1.8,0.1-2.4-0.9-2.4-2.4c0-15.2,0-30.3,0.1-45.5C576.2,33.9,576.8,33.4,577.2,32.8z"/>
	<path class="st0" d="M591.1,80.8c-1.3-0.8-0.9-2-0.9-3.1c0-14.4,0-28.8,0.1-43.2c1.3,1.8,0.9,3.8,0.9,5.8c0,11.1,0,22.2,0,33.2
		C591.2,75.9,591.1,78.4,591.1,80.8z"/>
	<path class="st1" d="M714.3,80.4c-2.2,1.8-11.3,2.9-13.1,1.5c-1.2-0.9-1.2-2.3-1.2-3.6c0-14,0-28,0-42c0-2.7,0.9-4.1,3.8-3.9
		c1.7,0.1,3.4,0.2,5,0c4.7-0.8,8,0.9,10.2,5.1c2.5,4.5,4.9,9,7.4,13.5c0.5,0.9,1.1,2.4,2.6,1.8c1.2-0.5,1.1-1.9,1.1-3
		c0-4.5,0-9,0-13.5c-0.1-2.7,1-3.9,3.8-3.9c12,0.1,10.3-1.1,10.3,9.9c0.1,11.5-0.1,22.9,0.1,34.4c0.1,4.2-1.1,5.5-5.5,6
		c-7.7,0.9-12-2.2-14.3-9.1c-0.6-2-1.8-3.5-2.8-5.2c-0.4-0.7-0.9-1.3-1.3-2c-0.3-0.6-0.7-1.1-1-1.7c-0.2-0.5-0.5-0.9-0.7-1.4
		c0-0.4-0.1-0.6-0.5-0.8c0,0,0-0.1,0-0.1c-0.3-0.4-0.6-0.8-0.8-1.2c0,0,0.1,0.1,0.1,0.1c-0.2-1-0.5-2-1.8-1.7
		c-1.6,0.3-1.4,1.6-1.4,2.7C714.2,68.3,714.3,74.4,714.3,80.4z"/>
	<path class="st1" d="M734.2,167.5c-1.4-1-2.2-2.4-2.1-4.2c0-14,0-28.1,0.1-42.1c0-1.1,0.7-2.1,1.1-3.2c0.5-0.1,1-0.4,1.4-0.4
		c11.3-1.1,11.5-0.8,11.5,10.4c0,7.6,6.7,11.6,13.6,8.2c1.6-0.8,2.3-2.4,2.3-4.1c0-2,0-4,0-6c0-8.5,2.4-10.4,10.9-8.5
		c2.3,0.5,3.2,2,3.2,4.3c0,13.8,0,27.6,0,41.5c0,2.6-1.3,4-3.9,4.1c-0.2,0-0.3,0-0.5,0c-9.6-0.2-10.8,1.7-10.7-9.9
		c0-2.4,2.2-5.7-1.5-7.5c-3.8-1.9-7.8-1-11.7-0.4c-1.5,0.2-1.8,1.7-1.8,3.2c0.1,2.8-0.1,5.7,0.1,8.5c0.3,4.4-1.5,6.6-6,6.2
		C738.2,167.3,736.2,167.5,734.2,167.5z"/>
	<path class="st2" d="M331.4,155.4c0.1-10.7,0.2-21.5,0.2-32.2c0-2.2-0.1-4.2,1.7-5.9c9.3,0.8,18.7-1.1,27.9,1.2c0,0-0.1,0-0.1,0
		c1.4,0.7,2.7,1.4,4.1,2.1c0,0-0.1-0.1-0.1-0.1c0.7,0.5,1.4,1.1,2.1,1.6c0.2,0.3,0.4,0.4,0.8,0.4c0.4,0.4,0.8,0.8,1.2,1.2
		c0.3,0.3,0.5,0.5,0.8,0.8c0.4,0.6,0.9,1.3,1.3,1.9l0,0c1.3,2.4,2.6,4.8,3.9,7.3c-0.1,0.3,0,0.5,0.2,0.8c1.3,5.3,1.3,10.7,0,16
		c-0.2,0.3-0.3,0.5-0.2,0.9c-1.1,0.7-0.9,2-1.4,3.1c-3.6,6.9-9.3,10.9-16.6,13.2c-5.4,0-10.9,0-16.3-0.1c-2.9-0.1-6,0.9-8.6-1.1
		c0,0,0.1,0,0.1,0C331,162.8,332.1,159,331.4,155.4z M354.4,153.6l-0.1,0.1c2.6-0.7,4.3-2.5,5.1-5.1l-0.1,0.1
		c2.7-4.2,2.7-8.3,0-12.5l0.1,0.1c-0.3-2-1.7-3.3-3.2-4.2c-3-1.8-6.3-3.6-9.3,0.2l0.1,0c-1.4,6.9-1.5,13.8,0.1,20.6
		c-0.1,0.2-0.1,0.4,0.2,0.6c0.2,1.2,1.1,1,1.9,0.9c1.3,0,2.7,0,4,0C353.8,154.5,354.2,154.1,354.4,153.6z"/>
	<path class="st2" d="M245.9,48.4l-0.4,0c0,0-0.3,0.2-0.3,0.2c-0.7,0-1.3,0-2,0l-0.4-0.2c0,0-0.4,0-0.4,0c-3.2-4.1-7.5-4.6-12.2-3.9
		c-0.8-0.2-1.6-0.2-2.1,0.7c-2.6,1.7-2.6,3.1,0.4,4.2c1.8,0.7,3.7,1.4,5.7,0.9c4.4,1.6,9.1,2.3,13.2,4.9c2.7,1.7,4.7,4,6.7,6.4
		c0,0.8,0.1,1.7,1,2.1c-0.1,0.3-0.1,0.5,0.2,0.7c0,2,0,4,0.1,6c0.2,3.4-2.6,5-4.3,7.4c-1,0.8-2.1,1.6-3.1,2.4c0,0,0-0.1,0,0
		c-2.2,0.8-4.5,1.7-6.7,2.5c-5.3,1.3-10.6,1-15.9,0.5c-0.5-0.9-1.3-0.7-2.1-0.6c-0.2-0.2-0.5-0.3-0.7-0.2c-1.2-1.1-2.6-1.8-4.2-2.1
		l0.1,0.1c-1.7-1.4-3.4-2.7-5-4.1c0,0,0,0,0,0c-0.7-1-1.4-1.9-2.2-2.9c0-0.7-0.1-1.3-0.1-2c0.3-2.4,1.1-4.4,4.1-4.1
		c4.3-1.1,8.5-2.2,12,2.1c1.3,1.6,3.6,1.4,5.6,1.4c2.7-0.1,6.6,0.6,7.1-2.8c0.4-3.4-3.7-3.8-6.1-4.4c-5.4-1.3-10.9-2.2-15.9-4.8
		c0,0-0.3-0.1-0.3-0.1c-0.4-0.1-0.9-0.1-1.3-0.2c-2-0.7-3.1-2.2-3.9-4.1c0.2-1.2-0.1-2.3-1.1-3.1c0,0,0,0,0,0
		c0.1-2.9,0.1-5.9,0.2-8.8c0,0,0,0.1,0,0.1c0.8-1.4,1.6-2.7,2.3-4.1c0.5-0.6,1.1-1.2,1.6-1.8c1-0.7,2-1.5,3-2.2c0,0,0,0,0,0
		c2-1.1,4.5-1.2,6.1-3c0.6,0,1.2-0.1,1.9-0.1c4,0,8,0,12,0.1c0.6,0.2,1.2,0.4,1.8,0.6c0.6,0.2,1.3,0.4,1.9,0.5
		c1.4,0.7,2.8,1.3,4.3,2c0,0,0,0,0,0c1,0.7,2.1,1.3,3.1,2c0,0,0,0,0,0c0.7,0.7,1.3,1.3,2,2c0,0,0,0,0,0c2.1,3.9-1.1,5.7-3.1,8
		c-0.3,0.3-0.6,0.6-0.9,0.9C246.7,47.7,246.3,48,245.9,48.4z"/>
	<path class="st2" d="M300.2,117.3c3.9,3.8,2,8.1,1,12.2c-0.4,0.3-0.8,0.6-1.2,0.8c0,0,0.1-0.1,0.1-0.1c-5.3,0-10.6,0.1-15.9,0
		c-2.1,0-3.8,0.6-3.9,2.7c-0.1,2,1.5,3.2,3.5,3.4c1.1,0.1,2.3,0,3.5,0c6.5,0,6.9,0.5,6.8,7.1c0,1.7-0.6,3.2-1.1,4.8
		c0,0,0.1-0.1,0.1-0.1c-3,1.6-6.2,0.9-9.3,1c-1.6,0-3.1,0.4-3.4,2.1c-0.3,2,0.6,3.2,2.8,3c1.3,0,2.7,0,4,0c3.7,0,7.3,0,11,0
		c0.6,0.1,1.1,0.1,1.7,0.2c0.8,1.3,2.5,2,2.5,3.9c0,2,0,4,0,6c-0.2,1.4-1,2.4-2.2,3.1c-11-0.1-22-0.1-33-0.2c-1.5-2-1.5-4.3-1.5-6.6
		c-0.1-12.8-0.2-25.6-0.4-38.3c0.3-0.3,0.3-0.5,0-0.8c0.6-1.4,1.3-2.7,1.9-4.1C278.2,117.5,289.2,117.4,300.2,117.3z"/>
	<path class="st2" d="M398.2,82.6c-6.7,0-13.3,0-20,0c-1.7,0-3.3,0-5,0c-2.6-0.7-5.6,0.8-8.1-1.1c0-16.1,0-32.1,0-48.2
		c0.7-0.4,1.4-0.7,2.1-1.1c3.7,0.7,8.4-3.5,11.1,2.2c0,9.4-0.1,18.8-0.1,28.2c0,1.7-0.8,3.6,0.9,5.1c-0.1,0.3,0,0.5,0.2,0.7
		c1.5,2,3.6,0.9,5.5,1.1c5.4,0.5,11-0.9,16.3,1.1c0,0-0.1-0.1-0.1-0.1c0.4,1,0.9,1.9,1.3,2.9c-0.1,1.6-0.3,3.3-0.2,4.9
		C402.4,81.3,401.1,82.7,398.2,82.6z"/>
	<path class="st2" d="M421.3,165.4c-5,4.5-11.3,4.4-14.5-0.2c-0.1-14.2-0.1-28.4-0.2-42.7c0-1.9,0.5-3.5,1.6-5
		c0.7-0.1,1.3-0.2,2-0.3c3.3,0.6,6.8-0.6,10.1,0.7c0,0.3,0.1,0.4,0.4,0.4c0.2,0.4,0.4,0.7,0.6,1.1
		C421.3,134.8,421.3,150.1,421.3,165.4z"/>
	<path class="st3" d="M216.2,58.5c0.4,0.1,0.9,0.1,1.3,0.2C217.1,58.7,216.6,58.6,216.2,58.5z"/>
	<path class="st1" d="M630.4,35.5c0.7-0.5,1.4-1,2.1-1.5l0.1-0.1c1.1,0.2,1.9-0.4,2.8-1.1c6.7-2,13.3-1.9,19.9,0.5
		c0.7,0.3,1.3,0.6,2,1c0.6,0.4,1.3,0.8,1.9,1.2c0,0,0,0,0,0c13.3,12.6,14.6,24.2,4.6,39.7c-0.6,0.5-1.1,1.1-1.7,1.6
		c-1.9,1.3-3.8,2.7-5.7,4c-9.3,3.9-18.3,3.5-27.1-1.6c-0.3-0.3-0.6-0.6-0.9-0.9c-0.3-0.4-0.6-0.9-0.9-1.3c0,0,0.1,0.1,0.1,0.1
		c-1.1-1-2.1-1.9-3.2-2.9c0,0,0.1,0.1,0.1,0.1c0-0.3-0.1-0.6-0.3-0.9c-3.9-7.3-6.4-14.7-3.9-23.1C622,44.2,625.6,39.5,630.4,35.5z
		 M655.2,57.4c0-7.5-4.7-13.3-10.6-13.3c-5.8,0-10.5,6-10.5,13.4c0,7.5,4.7,13.3,10.6,13.3C650.6,70.8,655.3,64.8,655.2,57.4z"/>
	<path class="st1" d="M664.7,121.6c0.3,0.1,0.4,0,0.5-0.3c0.4-0.3,0.7-0.6,1.1-0.8c0.3-0.2,0.7-0.4,1-0.7c0.7-0.4,1.4-0.8,2.1-1.2
		c0,0,0,0,0,0c9.1-3.2,18.1-3.2,26.6,1.9c2.8,1.7,5.5,3.5,4,7.4c-1.3,3.3-6.1,5.5-9.7,4.5c-0.4-0.3-0.7-0.6-1.1-0.9c0,0,0,0,0,0
		c-0.4-0.8-1.1-1.1-1.9-1.1c-2.9-1.8-5.9-1.4-9-0.8c-5.5,2.5-8.4,7.1-8,13.4c0.3,5.2,2,10.2,7.1,12.2c5,2,10.1,1.2,13.8-3.5
		c0.7-0.1,1.3-0.3,2-0.4c0.6,0.1,1.3,0.2,1.9,0.3c0.2,0.2,0.4,0.5,0.6,0.7c7.7,5.7,7.4,8.4-1.3,12.9c-4.5,2.4-9.3,3.2-14.3,3.3
		c-1.3,0-2.7-0.1-4-0.1c-0.3,0-0.7,0-1,0c-7.5-0.4-11.3-6-15.7-10.8c-0.4-0.5-0.8-0.9-1.2-1.4c0-0.7,0.1-1.6-0.9-1.9
		c-4.1-10.5-2.7-20.3,3.9-29.4C662.5,123.9,663.6,122.7,664.7,121.6z"/>
	<path class="st1" d="M687.2,130.4c0.8,0.1,1.5,0.3,1.9,1.1C688.5,131.1,687.9,130.7,687.2,130.4z"/>
	<path class="st4" d="M718.2,62.6c0.3,0.1,0.5,0.4,0.5,0.8C718.5,63.1,718.3,62.8,718.2,62.6z"/>
	<path class="st4" d="M719.3,64.7c0.3,0.6,0.7,1.1,1,1.7C720,65.8,719.7,65.3,719.3,64.7z"/>
	<path class="st5" d="M689.2,131.5c0.4,0.3,0.7,0.6,1.1,0.9C689.9,132.1,689.5,131.8,689.2,131.5z"/>
	<path class="st4" d="M717.3,61.2c0.3,0.4,0.6,0.8,0.8,1.2C717.8,62.1,717.6,61.7,717.3,61.2z"/>
	<path class="st2" d="M446.4,84.4c-1.4-2.5-4.4-2-6.4-3.3c-3.6-2.2-6.3-5.2-8.6-8.8c0,0,0,0,0,0c-0.7-2-1.5-3.9-2.2-5.9
		c0-10.3-0.1-20.7-0.1-31c0-0.3,0-0.7,0.1-1c1-1.4,2.4-2.1,4.1-2.1c2.9,0.1,5.9,0.3,8.8,0.4c0,0-0.1-0.1-0.1-0.1
		c1.2,1.4,1.6,3.1,1.7,4.9c0.1,3.4,0.2,6.8,0.4,10.1l-0.2,0.3l0.2,0.3c-0.1,6.2-1.6,12.5,1.1,18.5c1.2,3.9,4.4,4.1,7.5,3.8
		c3.2-0.4,5.5-2.1,5.7-5.7c1-0.6,0.9-1.5,0.8-2.4c0-9.3,0.1-18.7,0.1-28c0.9-0.9,1.7-1.9,3.1-2.1c2.5,0.1,5,0.2,7.5,0.2
		c2.3,0,3.6,1.2,3.6,3.3c-0.3,12.2,2,24.6-2,36.6c-0.2,0.2-0.3,0.4-0.2,0.6c-2.2,2.5-4.1,5.4-6.9,7.3c-5.3,2.6-10.7,4.9-16.9,4.2
		C446.9,84.4,446.7,84.4,446.4,84.4z"/>
	<path class="st6" d="M517.3,81.1c0.5,0.4,0.9,0.8,1.4,1.3C518.2,81.9,517.8,81.5,517.3,81.1z"/>
	<path class="st6" d="M515.2,48.4c0.3,0.3,0.6,0.7,1,1C515.8,49.1,515.5,48.8,515.2,48.4z"/>
	<path class="st5" d="M627.4,77.1c0.3,0.4,0.6,0.9,0.9,1.3C628,78,627.7,77.5,627.4,77.1z"/>
	<path class="st2" d="M235,124.4c-0.1,11.4-0.4,22.9-0.4,34.3c-0.1,9.6,0,9.6-9.4,9.7c-0.7,0-1.3,0.1-2,0.2
		c-0.7-0.2-1.4-0.4-2.1-0.6c0,0-0.2,0.2-0.2,0.3c0.1,0,0.2,0.1,0.3,0.1c0,0,0-0.4,0-0.4c0.7-1,0.2-1.6-0.7-2c0-6.1,0-12.2,0-18.3
		c-2.5,2-2.9,4.3-3.1,6.7c-0.5,1.6-1,3.1-1.4,4.7c-2.1,8-3.3,9.1-11.3,9c-2.2,0-3.5-2.1-4.3-4c-0.5-1.2-0.8-2.5-1.2-3.7
		c-0.4-3.9-1.3-7.7-3.8-10.9c0,3.3,0,6.6,0,9.9c-0.9,2.9,1.8,7.1-4,8.1c-9.6,1.6-10.4,1.2-10.5-8.8c-0.1-12.4-0.2-24.8-0.4-37.2
		c0.7-1.5,1-3.3,2.7-4.2c5,0.1,10,0.2,14.9,0.3c0.9,1,1.8,2,2.7,3c0.2,0.6,0.5,1.3,0.7,1.9c-0.4,0.7,0,1.1,0.6,1.5l-0.2,0.2
		c0,0,0.2,0.2,0.2,0.2c-0.3,1.9,0.8,3,2.1,4c-0.4,1.4-0.7,2.9,0.5,4.1c0.3,2.2,0.7,4.8,3.3,4.8c2.2,0,2-2.7,2.6-4.3
		c1.7-4.8,3.3-9.7,4.9-14.5c5.1-2.4,10.5-0.4,15.7-1.3c3.1,0.4,3.1,3,3.8,5.2C235,123.1,235,123.8,235,124.4z"/>
	<path class="st7" d="M219.6-5.5c-0.1,0.1-0.2,0.2-0.3,0.4c-0.2-0.2-0.4-0.3-0.6-0.5c0,0,0.2-0.2,0.3-0.4
		C219.2-5.9,219.4-5.7,219.6-5.5z"/>
	<path class="st2" d="M202.1,124c-0.6-0.3-0.9-0.8-0.6-1.5C201.7,123,201.9,123.5,202.1,124z"/>
	<path class="st2" d="M498,166.4c-0.3,0.3-0.6,0.6-0.9,0.9c-5,0.2-10,0.7-14.9-1c0.7-4.4-1.1-5.7-5.3-4.9c-1.8,0.4-3.7,0.3-5.5,0
		c-3.9-0.5-7-0.4-8,4.5c-0.4,2-2.5,2.8-4.8,2.6c-2.5-0.2-5-0.1-7.5-0.1c0,0,0,0,0,0c-0.2-1.1-1.2-1.1-2-1.3
		c-0.8-5.3,2.6-9.6,3.6-14.5c0.4-1.9,1.3-3.7,1.9-5.5c1-2.9,2.2-5.6,2.4-8.7c0.2-0.2,0.2-0.4,0.1-0.7c3.6-5.9,4.4-12.9,7.1-19.1
		c0,0,0,0,0,0c5.4-2.3,11.1-1.1,16.6-0.9c1.9,0.1,2.5,2.2,3.1,4c3.6,10.9,7.4,21.8,11.1,32.7c0.4,1.8,0.6,3.7,1.9,5.2
		c-0.1,0.3-0.1,0.6,0.2,0.8C497.4,162.5,498.7,164.3,498,166.4z M473.4,133.3c-1.3,4.5-2.4,8-3.2,11.7c-0.6,2.9,1.6,2.7,3.5,2.6
		c1.6-0.1,4.3,0.8,3.8-2.3C476.7,141.5,476.1,137.6,473.4,133.3z"/>
	<path class="st2" d="M449.3,167.1c0.8,0.1,1.8,0.2,2,1.3C450.4,168.3,449.7,168,449.3,167.1z"/>
	<path class="st8" d="M675.2,168.5c0.3,0,0.7,0,1,0C675.9,168.5,675.5,168.5,675.2,168.5z"/>
	<path class="st2" d="M286.3,70.9c0,0,0.1-0.3,0.1-0.3s-0.2-0.2-0.2-0.2c-0.3-0.5-0.6-1-0.9-1.5c0.1-0.2,0.1-0.4-0.1-0.5
		c-2.2-5.1-2.1-10.6-2.1-16c1.6-8.7,6.8-14.6,14.4-18.6c9.9-5.2,23-2.7,30,5.7c11.5,13.7,8.6,33.3-8.1,41.8
		c-0.7,0.4-1.4,0.8-2.2,1.2c-5.1,1.4-10.3,0.7-15.5,0.8c-0.1-0.2-0.2-0.5-0.2-0.7c-0.7-0.1-1.4-0.2-2.1-0.4c0,0,0.1,0,0.1,0
		c-4.6-2.7-9-5.5-12.1-10c0,0,0,0.1,0,0.1C287,71.9,286.6,71.4,286.3,70.9z M311.9,44.9l-0.3-0.2l-0.3,0.2c-2.5-0.8-4.9-0.9-7.2,0.8
		c-7.8,4-7.7,19.6,0,23.6c3,2,5.9,2,8.9,0c8-5.8,8-17.8,0-23.6C312.7,45.4,312.3,45.1,311.9,44.9z"/>
	<path class="st2" d="M363.4,35.7c0.9-0.5,0.5-2.1,1.8-2.3c0,16.1,0,32.1,0,48.2c-2.4-1.1-1.7-3.3-1.7-5.2
		C363.4,62.8,363.4,49.2,363.4,35.7z"/>
	<path class="st9" d="M371.2,126.4c-0.4-0.6-0.9-1.3-1.3-1.9C370.3,125.1,370.8,125.8,371.2,126.4z"/>
	<path class="st7" d="M285.3,69c0.3,0.5,0.6,1,0.9,1.5C285.9,70,285.6,69.5,285.3,69z"/>
	<path class="st7" d="M286.3,70.9c0.3,0.5,0.7,1,1,1.5C287,71.9,286.6,71.4,286.3,70.9z"/>
	<path class="st9" d="M369.1,123.7c-0.4-0.4-0.8-0.8-1.2-1.2C368.3,122.9,368.7,123.3,369.1,123.7z"/>
	<path class="st10" d="M300,130.4c0.4-0.3,0.8-0.6,1.2-0.8C300.8,129.8,300.4,130.1,300,130.4z"/>
	<path class="st10" d="M245.9,48.4c0.4-0.4,0.8-0.7,1.2-1.1C246.7,47.7,246.3,48,245.9,48.4z"/>
	<path class="st2" d="M347.3,153.4c0.6,0.3,1.3,0.6,1.9,0.9C348.3,154.5,347.5,154.7,347.3,153.4z"/>
	<path class="st2" d="M353.2,154.3c0.4-0.3,0.8-0.5,1.2-0.8C354.2,154.1,353.8,154.5,353.2,154.3z"/>
	<path class="st8" d="M664.7,121.6c-1.1,1.1-2.3,2.2-3.4,3.4"/>
	<path class="st8" d="M669.4,118.6c-0.7,0.4-1.4,0.8-2.1,1.2"/>
	<path class="st8" d="M666.3,120.5c-0.4,0.3-0.7,0.6-1.1,0.8C665.6,121,665.9,120.8,666.3,120.5z"/>
	<path class="st10" d="M444,47.7c0.1,0.2,0.1,0.4,0,0.6c0,0-0.2-0.3-0.2-0.3L444,47.7z"/>
	<path class="st2" d="M221.1,168.1c-0.2-0.7-0.5-1.4-0.7-2C221.3,166.5,221.8,167.1,221.1,168.1z"/>
	<g>
		<path class="st11" d="M161.2,51.4c-1.5,16.8-3.5,33.6-8.3,49.9c-3.6,11.8-9.2,22.7-14.3,33.9c-0.3,0.7-1,1.3-1.6,1.9
			c-5.6,7.5-11.4,15-18.1,21.6c-0.9,0.6-1.8,1.1-2.7,1.7c-0.8-0.7-0.7-1.3,0-2.1c13.3-13.3,23.2-28.9,30.3-46.3
			c3.7-9,6.4-18.3,1.5-27.9c-1.2-0.5-0.9,5.3-3.2,0.9c0.1-1.5,0-3,0.2-4.4c2.1-10.7,2.6-21.6,3.7-32.5c0.3-2.7-0.4-4.9-2.8-6.4
			c-7-4.1-14-8.1-21-12.2c-0.2-2.7-2.2-2.2-3.9-2.1c-0.6-0.1-1.3-0.3-1.9-0.4c0.5-1.8,2.2-1.8,3.5-2.5c1-0.6,2.4-1.1,1.8-2.5
			c-0.5-1-1.8-0.8-2.6-0.2c-1.8,1.5-2.4-0.2-3.6-1c-2.3-1.6-2-5.9-3.9-6.2c-4.2-0.6-6.6-4.3-10.6-4.9c-1.8-0.3-4-1-4.4-3.4
			c0.3-0.1,0.6-0.2,1-0.3c11.4,3.6,22.1,8.8,32.8,13.9c8.6,4.7,17.1,9.4,25.2,14.9c1.3,0.9,3.2,1.3,3.1,3.5c0,1.7,0,3.3,0,5
			c0,1.3,0,2.7,0,4C161.2,48.7,161.2,50.1,161.2,51.4z M131.5,24.8c-1.4,0.6-3.1,0.6-2.8,2.1c0.6,3,3.7,2.8,5.8,3.8
			c0.8,0.4,2.6-1.3,1.9-2.2C135.1,26.9,133,25.9,131.5,24.8z"/>
		<path class="st11" d="M144.8,85.1c2.3,4.4,2-1.4,3.2-0.9c4.9,9.6,2.2,18.9-1.5,27.9c-7,17.4-17,32.9-30.3,46.3
			c-0.7,0.7-0.9,1.4,0,2.1c-10.1,10.3-22.4,16.8-36.1,20.7c-4,1.1-7.8-2-11.7-3.2c-3.6-1.2-6.5-3.9-10.3-4.4c-3.3-2.4-7.2-4-9.9-7.1
			c-1.7-1.3-3.4-2.7-5-4c-0.3-0.3-0.7-0.6-1-0.9c-0.3-0.3-0.7-0.6-1-0.9c-0.4-0.3-0.7-0.7-1.1-1c-2-2-4-3.9-5.9-5.9
			c-0.3-0.4-0.7-0.7-1-1.1c-1-1-1.9-2.1-2.9-3.1c-1.1-1.8-2.2-3.6-3.9-5c-1.3-2.7-3-5.1-5-7.2c-0.1-0.7-0.2-1.4-1-1.7
			c-0.3-1.3-0.9-2.4-2-3.3c-0.3-1.4-1-2.7-2-3.7c-0.1-0.8-0.2-1.6-1.1-2c0,0,0,0,0,0c-0.1-0.8-0.2-1.6-1-2c-0.1-0.8-0.1-1.6-1-2
			c-0.3-1.6-0.9-3.1-2-4.3c-3.7-8.1-6.1-16.7-8.3-25.3c-1.7-6.7-2.6-13.5-3.8-20.3c-0.1-0.8,0-1.7-1-2.1c0-1.7-0.1-3.3-0.1-5
			c-0.1-1.7-0.1-3.3-0.2-5C-2.4,53.6-2.6,46.8-2.9,40c-0.1-1.6-0.3-3.2,1.6-4.3c5.6-3.2,10.1-8.1,16.6-9.8c2.1,0.7,3.9-0.2,5.7-1.1
			c15.6-8,31.8-14.4,48.4-20.1c5.8-2,11.6-2.9,17.8-0.2c1.9,0.8,5,4.6,7.9,0.8c1.6-0.5,2.6,1,4,1c0.4,2.4,2.7,3.2,4.4,3.4
			c4,0.6,6.4,4.3,10.6,4.9c1.8,0.3,1.6,4.5,3.9,6.2c1.2,0.8,1.8,2.5,3.6,1c0.8-0.6,2.1-0.9,2.6,0.2c0.7,1.4-0.8,1.9-1.8,2.5
			c-1.2,0.7-3,0.7-3.5,2.5c-5.5-2.4-11-4.9-16.6-7c-6-2.3-12-4.6-18.1-6.3c-7.2-2-13.8,1-20.6,3.4c-17.9,6.2-34.8,14.3-51,24
			c-2.7,1.6-3.6,3.4-3.5,6.4c0.1,10.8,1.8,21.4,3.6,32c2.9,17.1,8.7,33,17,48.2c0.9,1.7,1.8,3.6,4.2,3.7l0,0c0,2.3,1.2,4,2.4,5.8
			c9.7,13.4,22.4,22.9,37.3,29.8c3.2,1.5,6.8,1.6,10.2,0.1c10.3-4.4,19.9-10.4,27.6-18.4c14.6-15.2,24.6-33.1,29.9-53.6
			C142.4,91.8,141.9,87.8,144.8,85.1z"/>
		<path class="st11" d="M95.1,5.4c-2.9,3.8-6,0-7.9-0.8c-6.2-2.6-12-1.8-17.8,0.2C52.8,10.5,36.6,17,21,24.9
			c-1.8,0.9-3.6,1.8-5.7,1.1c8.3-5.8,17.8-9.4,26.8-13.9c9.7-3.8,19.5-7.2,29.2-10.7C77.2-0.7,82.5-0.2,88,1.9
			c1.6,0.6,3.4,0.9,5.2,1.3c0.2,0.2,0.5,0.3,0.8,0.2C94.3,4.1,94.7,4.8,95.1,5.4z"/>
		<path class="st12" d="M15.2,126.3c0.8,0.4,1,1.2,1.1,2C15.9,127.7,15.5,127,15.2,126.3z"/>
		<path class="st12" d="M41.1,160.4c0.3,0.3,0.7,0.6,1,0.9C41.8,161.1,41.5,160.7,41.1,160.4z"/>
		<path class="st11" d="M95.1,5.4c-0.4-0.7-0.8-1.3-1.2-2c2.3,0.2,4.9,0,6.2,2.7c-0.3,0.1-0.6,0.2-1,0.3C97.7,6.5,96.7,5,95.1,5.4z"
			/>
		<path class="st13" d="M34.1,131.4c-2.4-0.1-3.3-2.1-4.2-3.7c-8.3-15.1-14-31.1-17-48.2c-1.8-10.6-3.5-21.2-3.6-32
			c0-3,0.8-4.7,3.5-6.4c16.2-9.8,33.1-17.8,51-24c6.8-2.3,13.3-5.4,20.6-3.4c6.2,1.7,12.1,4,18.1,6.3c5.6,2.2,11.1,4.7,16.6,7
			c0.6,0.1,1.3,0.3,1.9,0.4c0.5,2.2,2.4,1.8,3.9,2.1c7,4.1,14,8.1,21,12.2c2.4,1.4,3.1,3.7,2.8,6.4c-1.1,10.8-1.6,21.7-3.7,32.5
			c-0.3,1.4-0.2,3-0.2,4.4c-2.9,2.7-2.5,6.7-3.3,10c-5.4,20.5-15.3,38.5-29.9,53.6c-7.7,8-17.3,14-27.6,18.4
			c-3.4,1.4-7,1.3-10.2-0.1c-14.9-6.8-27.6-16.4-37.3-29.8C35.2,135.4,34,133.7,34.1,131.4c2.6,0.8,3.7,3.2,5.1,5.1
			c9.1,12.6,21.1,21.5,35.1,27.9c2.1,1,4.2,1.2,6.3,0.5c14.6-4.9,26.3-13.8,35.2-26.3c1.6-2.2,4-5.4-1.4-6.6c-1.2-0.3-0.9-1.5-1-2.5
			c-0.4-4.2-4.1-7.1-8.2-6.5c-5.8,0.9-8.7-1.9-8.6-7.5c0-2.6-0.3-5.9-4.5-3.9c-2.3,1.1-3.8,0.3-4.1-1.9c-0.6-3.8-2.8-3.7-5.5-2.7
			c0-1.4,1-2,1.9-2.8c8.2-8.2,16.3-16.4,24.5-24.7c4.3-4.4,8.7-8.7,12.9-13.1c2.4-2.6,2.5-5.7,0.5-8.7c-1.9-2.7-4.7-3.1-7.5-2
			c-1.5,0.5-2.7,1.9-3.8,3C100.4,69.4,89.8,80,79.2,90.6c0-14.3-0.1-28.7-0.1-43c0-9.3,0-18.7,0-28c0-2.6-0.2-4.8-3.9-3.5
			c-20.8,6.9-41,15.2-59.6,26.8c-2.5,1.6-3.5,3.1-3.4,5.8C12.4,62,14.4,75.1,17.4,88c3.2,13.8,7.9,27.1,15.6,39.1
			C33.8,128.5,34.2,129.9,34.1,131.4z"/>
		<path class="st11" d="M131.5,24.8c1.5,1.1,3.5,2.2,4.9,3.8c0.7,0.8-1.1,2.5-1.9,2.2c-2.1-1-5.2-0.8-5.8-3.8
			C128.4,25.4,130.1,25.4,131.5,24.8z"/>
		<path class="st11" d="M124.9,29.6c-1.5-0.3-3.4,0.1-3.9-2.1C122.7,27.5,124.7,26.9,124.9,29.6z"/>
		<path class="st14" d="M34.1,131.4c0.1-1.6-0.3-3-1.1-4.3c-7.7-12.1-12.4-25.3-15.6-39.1c-3-12.9-5-26-5.3-39.3
			c-0.1-2.8,0.9-4.3,3.4-5.8c18.7-11.7,38.8-20,59.6-26.8c3.8-1.2,3.9,0.9,3.9,3.5c0,9.3,0,18.7,0,28c0,14.3,0.1,28.7,0.1,43
			c-3.7,3.8-7.4,7.6-10.9,11.5c-2.2,2.5-3.9,2.3-6.1-0.1c-3.7-4.3-7.7-8.4-11.5-12.6c-3.7-4.1-7-4.7-10.3-1.7
			c-2.9,2.6-2.7,6.4,0.5,10.1c5.7,6.5,11.4,12.9,17.3,19.3c5.3,5.8,8.9,5.5,14.4-0.5c3.1-3.4,5.8-7.3,10.1-9.3
			c2.7-1,4.9-1.2,5.5,2.7c0.3,2.2,1.8,3,4.1,1.9c4.2-2,4.5,1.3,4.5,3.9c-0.1,5.7,2.8,8.4,8.6,7.5c4.1-0.6,7.8,2.3,8.2,6.5
			c0.1,1-0.3,2.2,1,2.5c5.4,1.2,3,4.4,1.4,6.6c-8.9,12.5-20.6,21.4-35.2,26.3c-2.1,0.7-4.2,0.4-6.3-0.5c-14-6.4-26-15.3-35.1-27.9
			C37.8,134.6,36.7,132.2,34.1,131.4C34.1,131.4,34.1,131.4,34.1,131.4z"/>
		<path class="st1" d="M82.7,107.1c-4.3,2.1-7,5.9-10.1,9.3c-5.5,6-9,6.4-14.4,0.5c-5.8-6.4-11.6-12.8-17.3-19.3
			c-3.3-3.7-3.4-7.5-0.5-10.1c3.3-3,6.6-2.4,10.3,1.7c3.8,4.2,7.8,8.3,11.5,12.6c2.1,2.5,3.8,2.6,6.1,0.1c3.5-3.9,7.3-7.7,10.9-11.5
			C89.8,80,100.4,69.4,111,58.8c1.2-1.1,2.4-2.5,3.8-3c2.8-1.1,5.7-0.7,7.5,2c2,2.9,1.9,6.1-0.5,8.7c-4.2,4.5-8.6,8.8-12.9,13.1
			c-8.2,8.2-16.3,16.5-24.5,24.7C83.7,105.1,82.6,105.7,82.7,107.1z"/>
	</g>
</g>
</svg>
