<?xml version="1.0" encoding="utf-8"?>
<!-- Generator: Adobe Illustrator 22.0.0, SVG Export Plug-In . SVG Version: 6.00 Build 0)  -->
<svg version="1.1" id="Layer_1" xmlns="http://www.w3.org/2000/svg" xmlns:xlink="http://www.w3.org/1999/xlink" x="0px" y="0px"
	 viewBox="0 0 536 588.4" style="enable-background:new 0 0 536 588.4;" xml:space="preserve">
<style type="text/css">
	.st0{fill:#182432;}
	.st1{fill:#C3CAD2;}
	.st2{fill:#F1A50F;}
	.st3{fill:#EE890C;}
	.st4{fill:#E8D3D8;}
</style>
<g>
	<path class="st0" d="M28.5,437.5c3,1.5,3.4,4.3,3.8,7.2C31.1,442.3,29.8,439.9,28.5,437.5z"/>
	<path class="st0" d="M122,560.3c1.2,1.1,2.4,2.2,3.6,3.3C124.4,562.5,123.2,561.4,122,560.3z"/>
	<g>
		<path class="st1" d="M318.6,17c-9.5,12.2-19.6,0-25.7-2.7c-20.2-8.6-39-5.7-57.7,0.7C181.6,33.4,129,54.3,78.5,80.1
			c-5.8,3-11.6,5.7-18.4,3.5c27-18.7,57.6-30.5,86.8-45c31.3-12.3,63.1-23.5,94.8-34.8c18.9-6.8,36-5,53.8,1.8
			c5.3,2,11.1,2.9,16.7,4.4c0.8,0.7,1.7,0.9,2.7,0.6C316.1,12.7,317.3,14.8,318.6,17z"/>
		<path class="st1" d="M318.6,17c-1.3-2.2-2.5-4.3-3.8-6.5c7.6,0.8,15.8,0.1,20,8.8c-1,0.4-2.1,0.7-3.1,1.1
			C327,20.3,323.6,15.4,318.6,17z"/>
		<path class="st1" d="M436.5,79.7c5,3.7,11.5,7,15.7,12.2c2.2,2.7-3.5,8.2-6.1,7c-6.7-3.1-16.9-2.5-18.7-12.3
			C426.5,81.6,431.9,81.6,436.5,79.7z"/>
		<path class="st1" d="M415.1,95.4c-4.9-1.1-11.1,0.3-12.6-6.9C408,88.4,414.5,86.6,415.1,95.4z"/>
		<g>
			<path class="st1" d="M532.8,165.8c-5,54.6-11.3,108.9-26.8,161.8c-11.6,38.3-30,73.7-46.5,109.8c-1.1,2.3-3.4,4.1-5.1,6.1
				c-18.3,24.4-37,48.6-58.7,70.1c-2.9,1.8-5.8,3.7-8.6,5.5c-2.7-2.3-2.2-4.4,0.1-6.7c43-43.3,75.2-93.6,98.1-150
				c11.8-29.2,20.7-59.2,4.8-90.4c-3.9-1.6-2.9,17.1-10.3,2.8c0.2-4.8-0.1-9.7,0.8-14.4c6.7-34.7,8.4-70,11.8-105.1
				c0.9-8.7-1.2-16-9.1-20.6c-22.6-13.2-45.3-26.3-68-39.4c-0.7-8.8-7.1-7-12.6-6.9c-2.1-0.4-4.2-0.8-6.3-1.3
				c1.5-5.9,7.2-5.7,11.2-8c3.1-1.9,7.9-3.4,5.7-8c-1.6-3.3-5.9-2.7-8.5-0.6c-5.9,4.7-7.9-0.6-11.7-3.3c-7.5-5.3-6.5-19.2-12.5-20
				C366.8,45.4,359,33.6,346,31.5c-5.7-0.9-12.9-3.2-14.3-11.1c1-0.4,2.1-0.7,3.1-1.1c36.9,11.5,71.5,28.5,106.3,44.9
				c27.7,15.3,55.5,30.4,81.7,48.3c4.2,2.9,10.3,4.3,10.1,11.2c0,5.4,0,10.8,0,16.2c0,4.3,0,8.6,0,13
				C532.8,157.2,532.8,161.5,532.8,165.8z M436.5,79.7c-4.6,1.9-10,2-9.1,6.9c1.8,9.8,12,9.2,18.7,12.3c2.6,1.2,8.3-4.2,6.1-7
				C448,86.7,441.5,83.3,436.5,79.7z"/>
			<path class="st1" d="M479.6,275c7.4,14.2,6.5-4.4,10.3-2.8c15.9,31.2,7,61.2-4.8,90.4c-22.8,56.3-55.1,106.7-98.1,150
				c-2.3,2.3-2.8,4.4-0.1,6.7c-32.6,33.4-72.5,54.6-116.8,67c-12.9,3.6-25.4-6.3-38-10.5c-11.6-3.8-21-12.5-33.4-14.3
				c-10.7-7.7-23.3-12.8-32.2-23.1c-5.4-4.4-10.9-8.7-16.3-13.1c-1.1-1-2.2-2-3.3-3.1c-1.1-1-2.2-2-3.3-3c-1.2-1.1-2.4-2.2-3.5-3.3
				c-6.4-6.4-12.8-12.8-19.3-19.2c-1.1-1.2-2.2-2.4-3.3-3.5c-3.1-3.4-6.2-6.7-9.3-10.1c-3.5-6-7.1-11.8-12.7-16.1
				c-4.3-8.6-9.9-16.4-16.3-23.5c-0.2-2.4-0.8-4.6-3.3-5.6c-0.9-4.3-3-7.8-6.4-10.5c-1-4.7-3.2-8.7-6.6-12.1
				c-0.3-2.6-0.7-5.1-3.4-6.5c0,0,0,0,0,0c-0.3-2.5-0.5-5.1-3.1-6.4c-0.3-2.5-0.4-5.2-3.2-6.6c-0.9-5.2-3-9.9-6.4-14
				c-12-26.3-19.7-54.1-26.9-82C14.5,278.3,11.8,256,7.8,234c-0.5-2.6-0.1-5.4-3.2-6.7c-0.1-5.4-0.2-10.7-0.3-16.1
				c-0.2-5.4-0.4-10.7-0.7-16.1c-0.9-22-1.8-44-2.5-66c-0.2-5.2-0.9-10.3,5.2-13.8c18-10.4,32.7-26.3,53.8-31.7
				c6.8,2.3,12.6-0.5,18.4-3.5C129,54.3,181.6,33.4,235.1,15.1c18.8-6.4,37.5-9.3,57.7-0.7c6.1,2.6,16.2,14.8,25.7,2.7
				c5.1-1.6,8.5,3.3,13.1,3.3c1.4,7.9,8.6,10.2,14.3,11.1c13,2.1,20.9,14,34.5,15.8c6,0.8,5,14.7,12.5,20c3.8,2.7,5.8,8,11.7,3.3
				c2.6-2.1,6.9-2.8,8.5,0.6c2.2,4.6-2.6,6.2-5.7,8c-4,2.4-9.8,2.2-11.2,8c-17.9-7.7-35.7-15.8-53.9-22.8
				c-19.3-7.5-38.7-15-58.7-20.5c-23.4-6.5-44.7,3.3-66.7,10.9c-58,20-112.7,46.2-165.2,77.8c-8.8,5.3-11.5,11-11.4,20.6
				c0.5,35,5.8,69.3,11.8,103.7c9.5,55.4,28.2,107.1,54.9,156.1c2.9,5.4,5.9,11.8,13.8,12.1l0-0.1c-0.1,7.4,3.7,13,7.9,18.8
				c31.3,43.4,72.6,74.3,120.8,96.4c10.5,4.8,22.1,5.1,33,0.5c33.5-14.3,64.5-33.7,89.5-59.7c47.2-49.1,79.6-107.2,96.9-173.7
				C471.7,296.7,470.1,283.7,479.6,275z"/>
			<path class="st2" d="M120.9,425.2c-7.9-0.3-10.8-6.7-13.8-12.1c-26.7-49.1-45.4-100.8-54.9-156.1c-5.9-34.5-11.3-68.7-11.8-103.7
				c-0.1-9.6,2.6-15.3,11.4-20.6c52.4-31.6,107.2-57.8,165.2-77.8c21.9-7.6,43.2-17.4,66.7-10.9c19.9,5.5,39.4,13,58.7,20.5
				c18.2,7,35.9,15.2,53.9,22.8c2.1,0.4,4.2,0.8,6.3,1.3c1.5,7.2,7.8,5.8,12.6,6.9c22.7,13.1,45.4,26.2,68,39.4
				c7.8,4.6,9.9,11.9,9.1,20.6c-3.4,35.1-5.1,70.4-11.8,105.1c-0.9,4.7-0.5,9.6-0.8,14.4c-9.5,8.7-7.9,21.7-10.7,32.4
				C451.6,373.9,419.2,432,372,481.1c-25,26-56,45.4-89.5,59.7c-10.9,4.7-22.5,4.3-33-0.5c-48.2-22.1-89.4-53.1-120.8-96.4
				c-4.1-5.7-8-11.3-7.9-18.8c8.6,2.6,12,10.4,16.6,16.8c29.5,40.7,68.4,69.5,113.7,90.4c6.7,3.1,13.6,4,20.5,1.7
				c47.3-16,85.2-44.7,114.1-85.2c5.2-7.2,13-17.5-4.5-21.5c-4-0.9-2.8-4.8-3.1-8.1c-1.2-13.6-13.2-23-26.5-21
				c-18.6,2.8-28-6-27.8-24.5c0.1-8.4-0.9-19-14.5-12.7c-7.4,3.4-12.2,0.8-13.3-6.2c-1.9-12.4-8.9-11.8-17.8-8.6
				c-0.1-4.4,3.4-6.4,6-9c26.5-26.6,52.9-53.3,79.3-80c14-14.1,28.2-28,41.7-42.6c7.9-8.5,8.1-18.6,1.6-28.1
				c-6-8.7-15.2-9.9-24.4-6.5c-4.7,1.8-8.6,6.1-12.4,9.9c-34.5,34.2-68.8,68.5-103.2,102.8c-0.1-46.4-0.2-92.9-0.3-139.3
				c0-30.2,0-60.5,0-90.7c0-8.4-0.5-15.5-12.7-11.4c-67.5,22.2-132.7,49.1-193.2,86.9c-8.2,5.1-11.3,10-11.1,18.9
				c0.8,43.1,7.4,85.6,17,127.4c10.3,44.7,25.6,87.7,50.5,126.8C119.9,415.6,121.3,420.2,120.9,425.2z"/>
			<path class="st3" d="M120.9,425.2c0.4-5-1-9.7-3.7-13.9C92.3,372.3,77,329.3,66.7,284.6c-9.6-41.8-16.2-84.3-17-127.4
				c-0.2-9,2.9-13.8,11.1-18.9c60.5-37.8,125.8-64.7,193.2-86.9c12.2-4,12.7,3,12.7,11.4c0,30.2,0,60.5,0,90.7
				c0.1,46.4,0.2,92.9,0.3,139.3c-11.9,12.4-24,24.6-35.5,37.3c-7.3,8.1-12.7,7.6-19.6-0.5c-12-14-24.9-27.2-37.2-40.9
				c-11.9-13.2-22.8-15.2-33.4-5.5c-9.3,8.5-8.9,20.6,1.7,32.6c18.5,20.9,37.1,41.8,55.9,62.4c17.2,18.9,28.8,17.8,46.6-1.7
				c10-10.9,18.7-23.5,32.7-30.2c8.9-3.2,15.9-3.8,17.8,8.6c1.1,7,5.9,9.6,13.3,6.2c13.7-6.3,14.6,4.3,14.5,12.7
				c-0.2,18.4,9.2,27.2,27.8,24.5c13.2-2,25.3,7.4,26.5,21c0.3,3.2-0.9,7.2,3.1,8.1c17.5,3.9,9.6,14.2,4.5,21.5
				c-28.9,40.5-66.9,69.2-114.1,85.2c-6.9,2.3-13.7,1.4-20.5-1.7c-45.3-20.8-84.2-49.7-113.7-90.4c-4.6-6.4-8-14.2-16.6-16.8
				C120.9,425.1,120.9,425.2,120.9,425.2z"/>
			<path class="st4" d="M278.3,346.2c-14,6.7-22.8,19.3-32.7,30.2c-17.8,19.5-29.3,20.6-46.6,1.7c-18.8-20.6-37.4-41.5-55.9-62.4
				c-10.6-12-11-24.1-1.7-32.6c10.5-9.6,21.4-7.7,33.4,5.5c12.3,13.7,25.2,26.9,37.2,40.9c6.9,8.1,12.4,8.6,19.6,0.5
				c11.5-12.8,23.6-24.9,35.5-37.3c34.4-34.3,68.7-68.6,103.2-102.8c3.7-3.7,7.7-8.1,12.4-9.9c9.1-3.4,18.3-2.2,24.4,6.5
				c6.6,9.5,6.3,19.6-1.6,28.1c-13.5,14.5-27.7,28.5-41.7,42.6c-26.4,26.7-52.9,53.3-79.3,80C281.7,339.8,278.2,341.8,278.3,346.2z"
				/>
		</g>
	</g>
</g>
</svg>
